:FULLY-SPECIFIED
:FORCE-ALL-JOINTS-BE-3DOF
:DEGREES
501
root 10.606 16.8996 34.085 5.8045 4.89498 4.94282
lfemur 19.55 1.11536 -27.6288
ltibia 6.67916e-14 0 0
lfoot -16.4645 3.67914 0
ltoes -2.83666 0 0
rfemur -42.2692 8.86303 11.2049
rtibia 27.7865 0 0
rfoot -24.5665 -13.2811 0
rtoes -26.2908 0 0
lowerback -7.39946 -5.27569 -5.8512
upperback 0.448675 -6.59756 1.65975
thorax 5.47475 -3.45239 4.16708
lowerneck -23.718 -2.84942 -10.4961
upperneck 24.3261 -3.35799 11.0611
head 12.3646 -1.01768 5.44639
lclavicle 1.01728e-13 -3.97569e-15 0
lhumerus -15.9899 -24.4937 88.7512
lradius 35.6328 0 0
lwrist 7.58736 0 0
lhand -12.3209 -25.9232 0
lfingers 7.12502 0 0
lthumb 13.7478 3.60266 0
rclavicle 1.01728e-13 -3.97569e-15 0
rhumerus -49.4955 5.30406 -83.2878
rradius 32.2851 0 0
rwrist -16.4153 0 0
rhand -29.4472 -20.4875 0
rfingers 7.12502 0 0
rthumb -2.78357 -50.4491 0
502
root 10.5916 16.8555 34.2767 5.8585 4.80303 5.44843
lfemur 20.2765 1.11331 -28.0177
ltibia 1.27222e-14 0 0
lfoot -16.5811 3.17427 0
ltoes -1.20035 0 0
rfemur -42.1015 7.76496 11.4503
rtibia 28.5001 0 0
rfoot -24.5665 -13.2811 0
rtoes -26.2908 0 0
lowerback -7.61284 -5.25006 -6.20486
upperback 0.500366 -6.5047 1.42874
thorax 5.65139 -3.4168 4.11304
lowerneck -23.7472 -2.82471 -10.2485
upperneck 24.0684 -3.33949 10.8749
head 12.2581 -1.00694 5.31968
lclavicle -7.16619e-14 -1.43125e-14 0
lhumerus -16.8477 -25.2655 89.2453
lradius 35.4642 0 0
lwrist 7.98139 0 0
lhand -11.0579 -25.6415 0
lfingers 7.12502 0 0
lthumb 14.9647 3.79789 0
rclavicle -7.16619e-14 -1.43125e-14 0
rhumerus -49.5494 4.74409 -83.0345
rradius 31.7913 0 0
rwrist -15.9074 0 0
rhand -28.8581 -20.1609 0
rfingers 7.12502 0 0
rthumb -2.21465 -50.1292 0
503
root 10.5627 16.822 34.4469 5.77236 4.70368 5.89035
lfemur 20.9115 1.13927 -28.3013
ltibia 1.59028e-14 0 0
lfoot -16.2044 3.18276 0
ltoes -1.27802 0 0
rfemur -42.088 7.2778 11.5453
rtibia 29.3185 0 0
rfoot -24.5665 -13.2811 0
rtoes -26.2908 0 0
lowerback -7.30348 -5.2899 -6.76585
upperback 0.467025 -6.52174 1.29115
thorax 5.49237 -3.43496 4.30447
lowerneck -23.6802 -2.58928 -9.74969
upperneck 23.7945 -3.08755 10.5644
head 12.0897 -0.886872 5.13894
lclavicle -3.47873e-14 -1.59028e-14 0
lhumerus -17.9606 -25.9713 89.8984
lradius 34.6779 0 0
lwrist 6.21924 0 0
lhand -13.0934 -26.5298 0
lfingers 7.12502 0 0
lthumb 13.0032 3.04499 0
rclavicle -3.47873e-14 -1.59028e-14 0
rhumerus -49.4852 4.63011 -83.0168
rradius 30.9148 0 0
rwrist -15.6413 0 0
rhand -28.9057 -22.2807 0
rfingers 7.12502 0 0
rthumb -2.26065 -52.2484 0
504
root 10.5333 16.8132 34.6196 5.78171 4.77871 5.72101
lfemur 21.4534 1.03377 -27.9764
ltibia -6.04305e-14 0 0
lfoot -15.6492 3.92295 0
ltoes -5.86666 0 0
rfemur -42.284 6.80957 12.2585
rtibia 30.3788 0 0
rfoot -24.5665 -13.2811 0
rtoes -26.2908 0 0
lowerback -7.11977 -5.29678 -6.63216
upperback 0.36474 -6.56047 1.34573
thorax 5.27661 -3.44365 4.30398
lowerneck -23.7094 -2.63616 -9.95594
upperneck 23.7116 -3.16383 10.8927
head 12.0834 -0.896529 5.28811
lclavicle -3.51352e-14 7.15625e-15 0
lhumerus -18.5085 -25.0496 90.1897
lradius 34.7058 0 0
lwrist 7.78479 0 0
lhand -13.9088 -26.6147 0
lfingers 7.12502 0 0
lthumb 12.2171 3.00853 0
rclavicle -3.51352e-14 7.15625e-15 0
rhumerus -49.5862 4.33149 -82.8604
rradius 30.1708 0 0
rwrist -15.2606 0 0
rhand -29.248 -24.8762 0
rfingers 7.12502 0 0
rthumb -2.59123 -54.8402 0
505
root 10.5045 16.8204 34.8124 6.08648 5.03204 4.71665
lfemur 21.7933 0.766176 -26.7169
ltibia 0 0 0
lfoot -15.1608 4.26908 0
ltoes -9.52164 0 0
rfemur -42.6668 6.3535 13.7218
rtibia 31.228 0 0
rfoot -24.5665 -13.2811 0
rtoes -26.2908 0 0
lowerback -7.5571 -5.2966 -5.54246
upperback 0.245892 -6.64484 1.64502
thorax 5.31684 -3.4579 3.9713
lowerneck -23.612 -2.72521 -10.3467
upperneck 23.4508 -3.26025 11.3313
head 11.9922 -0.920213 5.49939
lclavicle 5.45664e-14 -1.11319e-14 0
lhumerus -19.2118 -25.3373 90.664
lradius 34.3462 0 0
lwrist 8.21855 0 0
lhand -12.9857 -26.6163 0
lfingers 7.12502 0 0
lthumb 13.107 2.95184 0
rclavicle 5.45664e-14 -1.11319e-14 0
rhumerus -49.7588 3.79117 -82.4656
rradius 29.6645 0 0
rwrist -14.6055 0 0
rhand -28.3209 -26.6156 0
rfingers 7.12502 0 0
rthumb -1.6958 -56.5886 0
506
root 10.4765 16.8093 34.9859 5.93492 4.98494 5.30097
lfemur 22.5866 0.727713 -27.1496
ltibia 4.45278e-14 0 0
lfoot -14.6012 4.20151 0
ltoes -10.7147 0 0
rfemur -42.7033 5.83435 13.4868
rtibia 32.1611 0 0
rfoot -24.5665 -13.2811 0
rtoes -26.2908 0 0
lowerback -7.11252 -5.218 -6.16985
upperback 0.149335 -6.50757 1.52612
thorax 5.00651 -3.39636 4.25757
lowerneck -23.6866 -2.91775 -10.456
upperneck 23.2929 -3.47018 11.3174
head 11.9764 -1.02331 5.47074
lclavicle 4.34344e-14 4.77083e-15 0
lhumerus -20.3044 -26.2615 91.6176
lradius 33.4622 0 0
lwrist 5.71889 0 0
lhand -12.0132 -25.773 0
lfingers 7.12502 0 0
lthumb 14.0443 3.73247 0
rclavicle 4.34344e-14 4.77083e-15 0
rhumerus -50.0655 3.35893 -81.9829
rradius 29.3855 0 0
rwrist -14.2596 0 0
rhand -26.5366 -27.4121 0
rfingers 7.12502 0 0
rthumb 0.0274694 -57.3919 0
507
root 10.4589 16.8017 35.1806 5.84686 4.96487 4.96305
lfemur 23.3422 0.727692 -26.6376
ltibia -6.67916e-14 0 0
lfoot -14.2038 4.25755 0
ltoes -13.2005 0 0
rfemur -42.5982 4.92598 14.5217
rtibia 33.1493 0 0
rfoot -24.5665 -13.2811 0
rtoes -26.2908 0 0
lowerback -7.08544 -5.05302 -5.70523
upperback 0.0944043 -6.33445 1.64626
thorax 4.87349 -3.29682 4.15632
lowerneck -23.3857 -2.79016 -10.0966
upperneck 23.2121 -3.21817 10.5301
head 11.8295 -0.984546 5.13318
lclavicle 5.97845e-14 -3.97569e-15 0
lhumerus -20.9745 -24.9495 92.2352
lradius 33.3265 0 0
lwrist 5.75167 0 0
lhand -8.90777 -24.7878 0
lfingers 7.12502 0 0
lthumb 17.0352 4.48531 0
rclavicle 5.97845e-14 -3.97569e-15 0
rhumerus -50.3914 2.7868 -81.3708
rradius 29.182 0 0
rwrist -13.9522 0 0
rhand -26.9516 -26.5873 0
rfingers 7.12502 0 0
rthumb -0.373306 -56.5667 0
508
root 10.4458 16.7873 35.3717 6.11898 4.7105 4.70499
lfemur 23.7071 0.916603 -26.2628
ltibia -7.31528e-14 0 0
lfoot -13.7242 4.29716 0
ltoes -16.2109 0 0
rfemur -42.9622 4.09735 15.4464
rtibia 34.2023 0 0
rfoot -24.5665 -13.2811 0
rtoes -26.2908 0 0
lowerback -7.42744 -4.97626 -5.35195
upperback 0.04695 -6.25015 1.78508
thorax 4.98278 -3.24913 4.09129
lowerneck -23.9399 -3.10127 -10.6072
upperneck 23.3159 -3.51928 10.8712
head 12.0341 -1.11053 5.31615
lclavicle -8.00605e-14 -2.38542e-15 0
lhumerus -21.7694 -23.7341 92.8416
lradius 32.8696 0 0
lwrist 6.50372 0 0
lhand -9.70282 -25.3508 0
lfingers 7.12502 0 0
lthumb 16.2698 3.9866 0
rclavicle -8.00605e-14 -2.38542e-15 0
rhumerus -50.2395 2.18867 -80.7055
rradius 28.4833 0 0
rwrist -13.0672 0 0
rhand -28.5697 -24.5178 0
rfingers 7.12502 0 0
rthumb -1.9361 -54.4887 0
509
root 10.4211 16.7778 35.522 6.27759 4.33083 5.02173
lfemur 24.01 1.19528 -26.4805
ltibia -4.13472e-14 0 0
lfoot -12.8052 4.49044 0
ltoes -19.0987 0 0
rfemur -43.3395 3.84549 15.4975
rtibia 35.0798 0 0
rfoot -24.5665 -13.2811 0
rtoes -26.2908 0 0
lowerback -7.01194 -4.87081 -5.74124
upperback -0.13168 -6.10059 1.75738
thorax 4.58258 -3.1717 4.34182
lowerneck -24.407 -3.18691 -10.7767
upperneck 23.4066 -3.59444 11.0784
head 12.179 -1.12239 5.4249
lclavicle 9.49197e-15 -2.38542e-14 0
lhumerus -22.4855 -22.2698 93.1093
lradius 32.1745 0 0
lwrist 4.62314 0 0
lhand -10.5699 -25.9756 0
lfingers 7.12502 0 0
lthumb 15.4348 3.42815 0
rclavicle 9.49197e-15 -2.38542e-14 0
rhumerus -50.0725 1.69452 -80.2254
rradius 27.4521 0 0
rwrist -12.1391 0 0
rhand -28.9028 -22.6433 0
rfingers 7.12502 0 0
rthumb -2.25787 -52.6111 0
510
root 10.399 16.7874 35.7253 6.08339 4.47589 3.96826
lfemur 24.8829 1.10159 -25.2129
ltibia 6.67916e-14 0 0
lfoot -11.7972 4.70896 0
ltoes -20.632 0 0
rfemur -42.9514 3.17619 17.1455
rtibia 35.9883 0 0
rfoot -24.5665 -13.2811 0
rtoes -26.2908 0 0
lowerback -6.94024 -4.78147 -4.54426
upperback -0.156983 -6.0892 1.93672
thorax 4.4068 -3.13822 3.87431
lowerneck -24.548 -3.0654 -10.2045
upperneck 23.601 -3.47961 10.5208
head 12.2426 -1.08854 5.13483
lclavicle 2.45996e-14 1.43125e-14 0
lhumerus -23.7309 -22.3508 93.8009
lradius 31.5783 0 0
lwrist 6.07481 0 0
lhand -9.45983 -24.9688 0
lfingers 7.12502 0 0
lthumb 16.5038 4.3493 0
rclavicle 2.45996e-14 1.43125e-14 0
rhumerus -50.1573 1.14076 -79.9291
rradius 26.7416 0 0
rwrist -11.403 0 0
rhand -28.4487 -22.9696 0
rfingers 7.12502 0 0
rthumb -1.81929 -52.9416 0
511
root 10.3593 16.7956 35.8937 6.03474 4.33003 3.20225
lfemur 25.3965 1.2377 -24.1865
ltibia 1.04958e-13 0 0
lfoot -10.2859 4.7392 0
ltoes -19.429 0 0
rfemur -42.8349 3.04142 18.4132
rtibia 36.7303 0 0
rfoot -24.5665 -13.2811 0
rtoes -26.2908 0 0
lowerback -6.51761 -4.84229 -4.0056
upperback -0.31933 -6.23812 2.16265
thorax 3.98365 -3.1946 3.83495
lowerneck -24.5817 -2.75013 -9.88697
upperneck 23.3574 -3.18975 10.7133
head 12.1148 -0.901602 5.1959
lclavicle 1.87852e-14 1.35174e-14 0
lhumerus -24.5309 -20.4608 93.532
lradius 30.7793 0 0
lwrist 4.03326 0 0
lhand -9.55723 -25.0975 0
lfingers 7.12502 0 0
lthumb 16.41 4.22834 0
rclavicle 1.87852e-14 1.35174e-14 0
rhumerus -50.0876 1.04947 -79.7386
rradius 26.1552 0 0
rwrist -10.486 0 0
rhand -28.784 -22.7711 0
rfingers 7.12502 0 0
rthumb -2.14311 -52.7401 0
512
root 10.3343 16.7972 36.0692 5.92933 4.00615 3.31556
lfemur 25.9796 1.50381 -24.1983
ltibia -3.49861e-14 0 0
lfoot -8.58159 5.03921 0
ltoes -18.7681 0 0
rfemur -42.4936 2.47688 18.9162
rtibia 37.416 0 0
rfoot -24.5665 -13.2811 0
rtoes -26.2908 0 0
lowerback -6.22489 -4.40596 -4.03786
upperback -0.376604 -5.66559 2.20103
thorax 3.70872 -2.90567 3.98582
lowerneck -24.6965 -3.33601 -11.321
upperneck 23.1127 -3.76078 11.8318
head 12.1746 -1.13945 5.78123
lclavicle 5.9039e-14 -1.11319e-14 0
lhumerus -25.6276 -21.2769 94.9039
lradius 30.0329 0 0
lwrist 6.31286 0 0
lhand -11.8153 -25.8721 0
lfingers 7.12502 0 0
lthumb 14.235 3.62008 0
rclavicle 5.9039e-14 -1.11319e-14 0
rhumerus -50.048 -0.161115 -78.5241
rradius 25.5241 0 0
rwrist -9.36239 0 0
rhand -30.1693 -21.2967 0
rfingers 7.12502 0 0
rthumb -3.48097 -51.248 0
513
root 10.3015 16.805 36.2325 6.23527 4.00298 2.96416
lfemur 26.0368 1.46058 -23.6767
ltibia 1.27222e-14 0 0
lfoot -6.55437 5.66393 0
ltoes -19.7855 0 0
rfemur -42.5158 2.31569 19.6542
rtibia 38.1053 0 0
rfoot -24.5665 -13.2811 0
rtoes -26.2908 0 0
lowerback -6.18574 -4.2084 -3.6263
upperback -0.747372 -5.43443 2.30549
thorax 3.24902 -2.77004 3.9098
lowerneck -24.1283 -3.57166 -11.8044
upperneck 23.2821 -3.97526 11.7884
head 12.1706 -1.30215 5.81179
lclavicle -1.09829e-14 4.77083e-15 0
lhumerus -26.7428 -20.1441 95.4139
lradius 28.9876 0 0
lwrist 5.14355 0 0
lhand -9.16164 -24.3747 0
lfingers 7.12502 0 0
lthumb 16.7908 4.91924 0
rclavicle -1.09829e-14 4.77083e-15 0
rhumerus -50.2411 -1.26837 -77.5921
rradius 24.8561 0 0
rwrist -7.64254 0 0
rhand -28.1594 -21.9079 0
rfingers 7.12502 0 0
rthumb -1.53984 -51.8821 0
514
root 10.2534 16.8192 36.3827 6.66529 4.15994 2.83567
lfemur 25.846 1.22982 -23.3253
ltibia -1.27222e-14 0 0
lfoot -4.25633 6.47465 0
ltoes -20.6446 0 0
rfemur -42.7997 2.55812 19.9022
rtibia 38.8218 0 0
rfoot -24.5665 -13.2811 0
rtoes -26.2908 0 0
lowerback -6.23811 -4.65184 -4.00237
upperback -1.24314 -6.01153 2.715
thorax 2.90353 -3.05029 4.49952
lowerneck -22.9054 -3.05545 -11.7349
upperneck 22.6413 -3.28358 11.5325
head 11.5774 -1.04241 5.76667
lclavicle -3.81667e-14 1.19271e-14 0
lhumerus -27.9434 -17.0215 95.4603
lradius 27.6427 0 0
lwrist 3.06031 0 0
lhand -13.5008 -27.3432 0
lfingers 7.12502 0 0
lthumb 12.6105 2.25617 0
rclavicle -3.81667e-14 1.19271e-14 0
rhumerus -50.1931 -0.332763 -77.3924
rradius 24.2099 0 0
rwrist -6.5237 0 0
rhand -27.5993 -23.1471 0
rfingers 7.12502 0 0
rthumb -0.998938 -53.1245 0
